<svg width="100%" height="100%" viewBox="0 0 720 98" fill="none" xmlns="http://www.w3.org/2000/svg">
<path d="M11.82 3.10999H28.96C30.1 3.10999 31.15 3.70999 31.73 4.67999L70.83 70.06C71.31 70.86 72.36 71.09 73.13 70.56L76.39 68.31C77.09 67.83 77.29 66.88 76.86 66.15C74.88 62.79 73.38 59.98 72.37 57.72C71.23 55.18 70.4 52.39 69.87 49.36C69.34 46.33 69.08 42.5 69.08 37.85V6.33999C69.08 4.55999 70.53 3.10999 72.31 3.10999H81.01C85.47 3.10999 89.08 6.72999 89.08 11.18V83.4C89.08 85.54 88.23 87.6 86.72 89.11L82.97 92.86C81.46 94.37 79.4 95.22 77.26 95.22H66.84C65.7 95.22 64.65 94.62 64.07 93.65L18.09 16.63C17.62 15.85 16.61 15.61 15.84 16.09L12.45 18.23C11.74 18.68 11.5 19.61 11.89 20.36C14.52 25.37 16.5 29.97 17.83 34.16C19.28 38.72 20 44.43 20 51.27V91.99C20 93.77 18.55 95.22 16.77 95.22H8.07C3.61 95.22 0 91.6 0 87.15V14.93C0 12.79 0.85 10.73 2.36 9.21999L6.11 5.46999C7.62 3.95999 9.68 3.10999 11.82 3.10999ZM118.87 91.21C111.41 87.13 105.73 81.45 101.83 74.17C97.93 66.89 95.97 58.64 95.97 49.43C95.97 40.22 97.96 31.95 101.96 24.62C105.95 17.3 111.65 11.53 119.07 7.31999C126.48 3.10999 135.19 0.99999 145.19 0.99999C155.19 0.99999 163.9 3.10999 171.31 7.31999C178.72 11.53 184.42 17.3 188.42 24.62C192.41 31.95 194.41 40.21 194.41 49.43C194.41 58.65 192.46 66.89 188.55 74.17C184.65 81.45 178.96 87.13 171.51 91.21C164.05 95.29 155.28 97.33 145.19 97.33C135.1 97.33 126.33 95.29 118.87 91.21ZM160.39 76.67C164.64 73.95 167.89 70.22 170.13 65.48C172.37 60.74 173.49 55.35 173.49 49.29C173.49 43.23 172.37 37.69 170.13 32.91C167.89 28.13 164.65 24.38 160.39 21.66C156.13 18.94 151.11 17.58 145.32 17.58C139.53 17.58 134.35 18.94 130.06 21.66C125.76 24.38 122.49 28.13 120.26 32.91C118.02 37.69 116.9 43.15 116.9 49.29C116.9 55.43 118.02 60.74 120.26 65.48C122.5 70.22 125.76 73.95 130.06 76.67C134.36 79.39 139.45 80.75 145.32 80.75C151.19 80.75 156.13 79.39 160.39 76.67ZM200.93 3.10999H235.67C244.53 3.10999 252.67 4.92999 260.08 8.56999C267.49 12.21 273.39 17.45 277.78 24.29C282.17 31.13 284.36 39.21 284.36 48.5C284.36 57.79 282.17 66.38 277.78 73.44C273.39 80.5 267.49 85.9 260.08 89.63C252.67 93.36 244.53 95.22 235.67 95.22H200.93V3.10999ZM250.93 75.29C255.23 73.05 258.43 69.72 260.54 65.29C262.65 60.86 263.7 55.4 263.7 48.91C263.7 43.03 262.65 37.9 260.54 33.51C258.43 29.12 255.28 25.73 251.07 23.31C246.86 20.9 241.68 19.69 235.54 19.69H220.93V78.64H234.75C241.24 78.64 246.64 77.52 250.94 75.28L250.93 75.29ZM291.03 3.10999H360.64V19.69H311.03V39.69H348.53V56.01H311.03V78.64H360.64V95.22H291.03V3.10999ZM368.27 9.21999L372.02 5.46999C373.53 3.95999 375.59 3.10999 377.73 3.10999H396.35C397.74 3.10999 398.97 3.98999 399.41 5.30999L413.8 47.98C414.94 51.32 415.75 55.46 416.23 60.42C416.67 64.99 416.95 70.4 417.06 76.65C417.08 77.53 417.79 78.25 418.67 78.25H422.6C423.48 78.25 424.19 77.53 424.21 76.65C424.32 70.64 424.62 65.32 425.11 60.68C425.64 55.64 426.51 51.4 427.74 47.98L442.39 5.28999C442.84 3.97999 444.07 3.10999 445.45 3.10999H462.9C465.04 3.10999 467.1 3.95999 468.61 5.46999L472.36 9.21999C473.87 10.73 474.72 12.79 474.72 14.93V83.4C474.72 85.54 473.87 87.6 472.36 89.11L468.61 92.86C467.1 94.37 465.04 95.22 462.9 95.22H457.95C456.17 95.22 454.72 93.77 454.72 91.99V58.64C454.72 51.18 455.62 43.99 457.42 37.06C459.08 30.65 461.17 24.36 463.7 18.17C464.04 17.34 463.64 16.39 462.81 16.07L458.53 14.39C457.67 14.05 456.71 14.5 456.41 15.37L429.81 93.04C429.36 94.35 428.13 95.22 426.75 95.22H413.61C412.22 95.22 410.99 94.34 410.55 93.02L384.33 15.37C384.03 14.5 383.07 14.05 382.21 14.38L377.95 16.06C377.11 16.39 376.71 17.34 377.06 18.17C379.58 24.27 381.65 30.55 383.27 36.99C385.02 43.97 385.9 51.18 385.9 58.64V91.99C385.9 93.77 384.45 95.22 382.67 95.22H377.72C375.58 95.22 373.52 94.37 372.01 92.86L368.26 89.11C366.75 87.6 365.9 85.54 365.9 83.4V14.93C365.9 12.79 366.75 10.73 368.26 9.21999H368.27ZM480.78 3.10999H550.39V19.69H500.78V39.69H538.28V56.01H500.78V78.64H550.39V95.22H480.78V3.10999ZM573.62 93.51C567.7 90.97 563.03 87.57 559.61 83.31C556.19 79.06 553.86 74.25 552.63 68.9L571.45 62.58C572.15 65.83 573.42 68.88 575.27 71.73C577.11 74.58 579.68 76.91 582.97 78.7C586.26 80.5 590.19 81.4 594.75 81.4C600.89 81.4 605.43 80.3 608.37 78.11C611.31 75.92 612.78 73.07 612.78 69.56C612.78 66.58 611.62 64.14 609.29 62.26C606.97 60.38 603.13 59.04 597.78 58.25L586.33 56.67C580.19 55.79 574.97 54.26 570.67 52.06C566.37 49.87 563.06 46.86 560.73 43.05C558.4 39.23 557.24 34.56 557.24 29.03C557.24 24.03 558.64 19.38 561.45 15.08C564.26 10.78 568.4 7.35999 573.89 4.80999C579.37 2.26999 585.97 0.98999 593.69 0.98999C601.41 0.98999 607.55 2.10999 612.9 4.34999C618.25 6.58999 622.53 9.54999 625.73 13.23C628.93 16.92 631.24 21.04 632.64 25.6L614.22 32.05C613.25 29.07 611.9 26.44 610.14 24.16C608.38 21.88 606.15 20.1 603.43 18.83C600.71 17.56 597.46 16.92 593.69 16.92C589.92 16.92 586.87 17.45 584.54 18.5C582.21 19.55 580.55 20.93 579.54 22.64C578.53 24.35 578.03 26.22 578.03 28.23C578.03 30.86 579.06 33.03 581.12 34.74C583.18 36.45 586.1 37.57 589.87 38.1L601.32 39.68C611.32 41.08 619.19 44.15 624.94 48.89C630.68 53.63 633.56 60.07 633.56 68.23C633.56 73.67 632.16 78.58 629.35 82.97C626.54 87.36 622.24 90.84 616.45 93.43C610.66 96.02 603.42 97.31 594.74 97.31C586.58 97.31 579.54 96.04 573.62 93.49V93.51ZM640.52 3.10999H660.52V39.56H700V3.10999H720V95.22H700V56.14H660.52V95.22H640.52V3.10999Z" fill="#F26526"/>
</svg>